<?xml version="1.0" encoding="utf-8"?>
<!-- Generator: Adobe Illustrator 27.3.1, SVG Export Plug-In . SVG Version: 6.00 Build 0)  -->
<svg version="1.1" id="star" xmlns="http://www.w3.org/2000/svg" xmlns:xlink="http://www.w3.org/1999/xlink" x="0px" y="0px"
	 viewBox="0 0 425 396" style="enable-background:new 0 0 425 396;" xml:space="preserve">
<style type="text/css">
	.st0{opacity:0.49;fill:#ED1C24;}
	.st1{fill:#ED1C24;}
</style>
<path id="iconthree" class="st0" d="M324.6,66.5c-0.5,0-1,0-1.5,0v0H54.3v38.7h268.9c6.5,0,11.9,5.4,11.9,12.1s-5.3,12.1-11.9,12.1
	h-69v0c-27.4,0.7-49.4,23.4-49.7,51.5h0v148.5h37.8V181h0c0.2-7.1,5.9-12.9,12.9-12.9h68v0c0.5,0,1,0,1.5,0
	c27.4,0,49.7-22.7,49.7-50.8S352.1,66.5,324.6,66.5z"/>
<path id="icontwo" class="st0" d="M313.9,70.7c-0.4,0-0.9,0-1.3,0v0H80.5v34.5h232.1c5.7,0,10.2,4.8,10.2,10.8
	c0,6-4.6,10.8-10.2,10.8H253v0c-23.6,0.6-42.6,20.9-42.9,46h0v132.6h32.7V172.9h0c0.1-6.4,5.1-11.5,11.1-11.5h58.7v0
	c0.4,0,0.8,0,1.3,0c23.7,0,42.9-20.3,42.9-45.4S337.6,70.7,313.9,70.7z"/>
<path id="iconone" class="st1" d="M313.3,76.4c-0.4,0-0.7,0-1.1,0v0H108.3v28.7h203.8c5,0,9,4,9,9s-4,9-9,9h-52.3v0
	c-20.8,0.5-37.4,17.4-37.7,38.2h0v110.1h28.7V161.3h0c0.1-5.3,4.4-9.6,9.8-9.6h51.6v0c0.4,0,0.7,0,1.1,0c20.8,0,37.7-16.9,37.7-37.7
	S334.1,76.4,313.3,76.4z"/>
<style>
@keyframes opacityOne {
0% {
   opacity:0;
  }
 25%{
   opacity:0.25 ;
  }
  50%{
   opacity:0.25 ;
  }
   75%{
   opacity:0.25 ;
  }
 100%{
   opacity:0 ;
  }

}
@keyframes opacityTwo {
0% {
   opacity:0;
  }
  25%{
   opacity:0 ;
  }
 50%{
   opacity:0.25 ;
  }
   75%{
   opacity:0 ;
  }
}
#icontwo {
  animation: opacityOne 1s linear infinite;
}
#iconthree {
  animation: opacityTwo 1s linear infinite;
}

</style>
</svg>
